# xmcd
#
# Track frame offsets: 
#        150
#        19062
#        34740
#        54116
#        67676
#        81806
#        101302
#        115561
#        134174
#        152331
#        168801
#        192552
#        205212
#        224883
#        238999
#        257178
#        268292
#        284290
#        300035
#        315772
#        332618
#        348407
#        360028
#
# Disc length: 5003 seconds
#
# Revision: 3
# Processed by: cddbd v1.5.2PL0 Copyright (c) Steve Scherf et al.
# Submitted via: ExactAudioCopyFreeDBPlugin 1.0
#
DISCID=3c138917
DTITLE=Various Artist - Sweet Soul Music:  411 Scorching Classics, 19
DTITLE=61-1975 [Bear Family]
DYEAR=2014
DGENRE=Soul
TTITLE0=The Spinners - Could it Be I'm Falling in Love
TTITLE1=Timmy Thomas - Why Can't We Live Together
TTITLE2=Cymande - The Message
TTITLE3=The O'Jays - Love Train
TTITLE4=The Four Tops - Ain't No Woman (Like the One I Got)
TTITLE5=The New Birth - I Can Understand It
TTITLE6=The Independents - Leaving Me
TTITLE7=Sylvia - Pillow Talk
TTITLE8=Barry White - I'm Gonna Love You Just a Little More, Baby
TTITLE9=The Manhattans - There's No Me Without You
TTITLE10=Fred Wesley and The JB's - Doing it to Death
TTITLE11=First Choice - Armed and Extremely Dangerous
TTITLE12=Don Convay - I Was Checkin' Out She Was Checkin' In
TTITLE13=The Pointer Sisters - Yes We Can Can
TTITLE14=Marvin Gaye - Let's Get It On
TTITLE15=Ann Peebles - I Can't Stand the Rain
TTITLE16=Eddie Kendricks - Keep On Truckin', Part 1
TTITLE17=Millie Jackson - Hurts So Good
TTITLE18=Johnny Taylor - Cheaper to Keep Her
TTITLE19=Harold Melvin and The Blue Notes - The Love I Lost, Part 1
TTITLE20=Gladys Knihgt and The Pips - I've Got to Use My Imagination
TTITLE21=Sly Johnson - Back for a Taste of Your Love
TTITLE22=Tower of Power - What is Hip? (single edit)
EXTD=
EXTT0=
EXTT1=
EXTT2=
EXTT3=
EXTT4=
EXTT5=
EXTT6=
EXTT7=
EXTT8=
EXTT9=
EXTT10=
EXTT11=
EXTT12=
EXTT13=
EXTT14=
EXTT15=
EXTT16=
EXTT17=
EXTT18=
EXTT19=
EXTT20=
EXTT21=
EXTT22=
PLAYORDER=
